<?xml version="1.0" encoding="UTF-8"?>
<svg id="Calque_1" data-name="Calque 1" xmlns="http://www.w3.org/2000/svg" viewBox="0 0 170.08 170.08">
  <defs>
    <style>
      .cls-1 {
        fill: #0d1b2a;
      }

      .cls-2 {
        fill: #ffb900;
      }

      .cls-3 {
        fill: #fff;
      }
    </style>
  </defs>
  <rect class="cls-1" x="0" y="0" width="170.08" height="170.08"/>
  <g>
    <path class="cls-3" d="M134.4,71.68c-10.55.27-10.54,15.72,0,15.99,10.55-.27,10.54-15.72,0-15.99Z"/>
    <path class="cls-3" d="M113.93,62.18c-13.23.36-13.11,19.67,0,19.97,13.1-.3,13.22-19.62,0-19.97Z"/>
    <path class="cls-3" d="M35.69,71.68c-10.55.27-10.54,15.72,0,15.99,10.55-.27,10.54-15.72,0-15.99Z"/>
    <path class="cls-3" d="M56.16,62.18c-13.23.36-13.1,19.67,0,19.97,13.1-.3,13.22-19.62,0-19.97Z"/>
    <path class="cls-2" d="M85.04,43.26c-17.87.31-19.71,25.96-2.25,28.94,20.53,2.36,23-28.05,2.25-28.94Z"/>
    <path class="cls-3" d="M85.04,21.5c-35.09,0-63.54,28.45-63.54,63.54,0,5.82.79,11.47,2.25,16.83,2.67,9.75,7.61,18.56,14.21,25.84,1.05,1.16,2.15,2.28,3.29,3.36,5.26,5.01,11.39,9.13,18.13,12.11,1.29.57,2.6,1.1,3.94,1.58,6.77,2.47,14.09,3.81,21.72,3.81s14.94-1.34,21.72-3.81c1.34-.49,2.66-1.01,3.95-1.59,6.74-2.98,12.87-7.1,18.13-12.11,1.14-1.08,2.23-2.2,3.28-3.36,6.61-7.28,11.54-16.1,14.21-25.86,1.47-5.35,2.25-10.99,2.25-16.81,0-35.09-28.45-63.54-63.54-63.54ZM130.51,126.26c-.55.61-1.11,1.2-1.68,1.78v-28.47c.03-6.93-4.87-13.04-11.63-14.54-3.08-.7-6.5-.37-9.37.95,1.83,3.53,2.87,7.54,2.87,11.78v43.05c-.29.13-.58.27-.88.4-.97.43-2,.85-3.07,1.26,0-14.88,0-43.44,0-44.71-.01-4.65-1.41-8.88-3.98-12.54-9.07-13.31-30.21-11.7-37.17,2.83-1.46,2.93-2.28,6.22-2.28,9.71,0,1.37,0,29.84,0,44.7-1.01-.38-2.04-.79-3.07-1.25-.29-.13-.58-.26-.87-.4v-43.06c0-4.24,1.04-8.25,2.88-11.78-.9-.41-1.85-.73-2.84-.95-6.29-1.51-13.26,1.66-16.28,7.28-1.2,2.15-1.89,4.62-1.89,7.26v28.47c-.57-.58-1.14-1.18-1.69-1.78-.55-.6-1.08-1.22-1.6-1.84v-24.85c0-3.25.86-6.3,2.36-8.95-6-2.66-12.97.52-15.54,6.1-.74-3.84-1.12-7.75-1.12-11.69,0-16.39,6.38-31.81,17.98-43.4,11.59-11.59,27.01-17.98,43.4-17.98s31.81,6.38,43.4,17.98c11.59,11.59,17.98,27.01,17.98,43.4,0,3.96-.38,7.88-1.13,11.73-1.86-4.17-6.03-7.07-10.89-7.07-1.64,0-3.22.34-4.64.93,1.5,2.64,2.35,5.69,2.35,8.95v24.84c-.52.62-1.05,1.24-1.6,1.85Z"/>
  </g>
</svg>