<?xml version="1.0" encoding="UTF-8"?>
<svg id="Calque_1" data-name="Calque 1" xmlns="http://www.w3.org/2000/svg" viewBox="0 0 283.46 283.46">
  <defs>
    <style>
      .cls-1 {
        fill: #0d1b2a;
      }

      .cls-2 {
        fill: #ffb900;
      }
    </style>
  </defs>
  <path class="cls-1" d="M251.84,111.94c-23.52.6-23.52,35.08,0,35.67,23.52-.6,23.52-35.08,0-35.67Z"/>
  <path class="cls-1" d="M206.18,90.73c-29.52.8-29.24,43.88,0,44.55,29.23-.67,29.5-43.76,0-44.55Z"/>
  <path class="cls-1" d="M31.65,111.94c-23.52.6-23.52,35.08,0,35.67,23.52-.6,23.52-35.08,0-35.67Z"/>
  <path class="cls-1" d="M77.31,90.73c-29.51.79-29.22,43.89,0,44.55,29.23-.67,29.5-43.76,0-44.55Z"/>
  <path class="cls-2" d="M141.74,48.52c-39.87.69-43.96,57.91-5.01,64.55,45.79,5.26,51.32-62.57,5.01-64.55Z"/>
  <path class="cls-1" d="M141.73,0C63.46,0,0,63.46,0,141.73,0,154.72,1.75,167.31,5.03,179.27c5.96,21.76,16.97,41.41,31.7,57.65,2.34,2.59,4.79,5.09,7.33,7.5,11.74,11.18,25.41,20.37,40.45,27.01,2.88,1.27,5.81,2.46,8.78,3.53,15.11,5.5,31.42,8.49,48.44,8.49s33.33-3,48.44-8.49c2.99-1.09,5.92-2.26,8.8-3.54,15.04-6.65,28.71-15.83,40.45-27.01,2.54-2.41,4.98-4.91,7.32-7.5,14.73-16.24,25.75-35.91,31.7-57.68,3.27-11.94,5.02-24.52,5.02-37.5C283.46,63.46,220.01,0,141.73,0ZM243.17,233.68c-1.23,1.36-2.48,2.68-3.75,3.98v-63.51c.08-15.46-10.87-29.09-25.95-32.45-6.88-1.56-14.5-.82-20.9,2.11,4.09,7.87,6.4,16.81,6.4,26.28v96.04c-.65.3-1.3.6-1.96.89-2.17.97-4.47,1.9-6.85,2.8,0-33.2.02-96.9,0-99.74-.03-10.36-3.14-19.8-8.88-27.97-20.24-29.7-67.39-26.1-82.91,6.31-3.26,6.53-5.09,13.88-5.09,21.66.02,3.05,0,66.56,0,99.72-2.26-.85-4.55-1.77-6.84-2.78-.65-.29-1.3-.59-1.95-.88v-96.05c0-9.47,2.32-18.41,6.41-26.28-2.01-.91-4.12-1.63-6.33-2.11-14.02-3.36-29.58,3.7-36.33,16.25-2.68,4.8-4.21,10.31-4.21,16.2v63.52c-1.28-1.3-2.54-2.63-3.76-3.98-1.22-1.34-2.4-2.72-3.57-4.11v-55.42c0-7.25,1.92-14.06,5.26-19.95-13.38-5.94-28.93,1.17-34.67,13.61-1.65-8.56-2.5-17.29-2.5-26.08,0-36.57,14.24-70.95,40.1-96.82C70.78,19.06,105.16,4.82,141.73,4.82s70.95,14.24,96.82,40.1c25.86,25.86,40.1,60.24,40.1,96.82,0,8.82-.85,17.58-2.51,26.16-4.15-9.29-13.46-15.77-24.3-15.77-3.67,0-7.17.75-10.34,2.08,3.34,5.89,5.25,12.7,5.25,19.95v55.41c-1.17,1.39-2.35,2.77-3.57,4.12Z"/>
</svg>