<?xml version="1.0" encoding="UTF-8"?>
<svg id="Calque_1" data-name="Calque 1" xmlns="http://www.w3.org/2000/svg" viewBox="0 0 364.94 102.09">
  <defs>
    <style>
      .cls-1 {
        fill: #0d1b2a;
      }
    </style>
  </defs>
  <g>
    <path class="cls-1" d="M90.7,40.32c-8.47.22-8.47,12.63,0,12.85,8.47-.22,8.47-12.63,0-12.85Z"/>
    <path class="cls-1" d="M74.26,32.68c-10.63.29-10.53,15.8,0,16.04,10.53-.24,10.62-15.76,0-16.04Z"/>
    <path class="cls-1" d="M11.4,40.32c-8.47.22-8.47,12.63,0,12.85,8.47-.22,8.47-12.63,0-12.85Z"/>
    <path class="cls-1" d="M27.84,32.68c-10.63.29-10.52,15.81,0,16.04,10.53-.24,10.62-15.76,0-16.04Z"/>
    <path class="cls-1" d="M51.05,17.48c-14.36.25-15.83,20.86-1.81,23.25,16.49,1.9,18.48-22.53,1.81-23.25Z"/>
    <path class="cls-1" d="M51.04,0C22.85,0,0,22.85,0,51.04,0,55.72.63,60.26,1.81,64.56c2.15,7.84,6.11,14.91,11.42,20.76.84.93,1.72,1.83,2.64,2.7,4.23,4.03,9.15,7.34,14.57,9.73,1.04.46,2.09.88,3.16,1.27,5.44,1.98,11.32,3.06,17.45,3.06s12-1.08,17.45-3.06c1.08-.39,2.13-.82,3.17-1.28,5.42-2.39,10.34-5.7,14.57-9.73.92-.87,1.79-1.77,2.64-2.7,5.31-5.85,9.27-12.93,11.42-20.77,1.18-4.3,1.81-8.83,1.81-13.51C102.09,22.85,79.23,0,51.04,0ZM87.58,84.16c-.44.49-.89.97-1.35,1.43v-22.87c.03-5.57-3.92-10.48-9.35-11.68-2.48-.56-5.22-.29-7.53.76,1.47,2.83,2.31,6.06,2.31,9.47v34.59c-.23.11-.47.22-.7.32-.78.35-1.61.69-2.47,1.01,0-11.96,0-34.9,0-35.92-.01-3.73-1.13-7.13-3.2-10.07-7.29-10.7-24.27-9.4-29.86,2.27-1.17,2.35-1.83,5-1.83,7.8,0,1.1,0,23.97,0,35.91-.81-.31-1.64-.64-2.46-1-.23-.1-.47-.21-.7-.32v-34.59c0-3.41.84-6.63,2.31-9.47-.72-.33-1.48-.59-2.28-.76-5.05-1.21-10.65,1.33-13.08,5.85-.96,1.73-1.52,3.71-1.52,5.83v22.88c-.46-.47-.92-.95-1.36-1.43-.44-.48-.86-.98-1.28-1.48v-19.96c0-2.61.69-5.06,1.89-7.19-4.82-2.14-10.42.42-12.49,4.9-.59-3.08-.9-6.23-.9-9.39,0-13.17,5.13-25.55,14.44-34.87C25.49,6.86,37.87,1.73,51.04,1.73s25.55,5.13,34.87,14.44c9.31,9.31,14.44,21.7,14.44,34.87,0,3.18-.31,6.33-.9,9.42-1.49-3.35-4.85-5.68-8.75-5.68-1.32,0-2.58.27-3.73.75,1.2,2.12,1.89,4.57,1.89,7.19v19.96c-.42.5-.85,1-1.29,1.48Z"/>
  </g>
  <g>
    <g>
      <path class="cls-1" d="M136.29,35.3c-2.04,2.45-4.7,3.67-7.98,3.67-1.48,0-2.86-.27-4.14-.81-1.28-.54-2.39-1.27-3.32-2.21-.94-.94-1.67-2.03-2.21-3.29-.54-1.26-.81-2.62-.81-4.09s.27-2.83.81-4.09c.54-1.26,1.27-2.36,2.21-3.29s2.04-1.67,3.32-2.21c1.28-.54,2.66-.81,4.14-.81,1.63,0,3.04.28,4.24.83,1.2.56,2.28,1.36,3.27,2.42l-3.03,2.95c-.52-.59-1.14-1.09-1.86-1.49-.72-.4-1.58-.6-2.59-.6-.87,0-1.68.15-2.43.45-.75.3-1.4.72-1.96,1.28-.56.56-.99,1.22-1.31,1.99-.32.77-.47,1.63-.47,2.57s.16,1.8.47,2.57c.31.77.75,1.43,1.31,1.99s1.21.98,1.96,1.28c.75.3,1.56.45,2.43.45,1.06,0,1.97-.21,2.75-.64.78-.43,1.48-1.04,2.11-1.83l3.09,2.92Z"/>
      <path class="cls-1" d="M151.47,35.21c-.67,1.17-1.54,2.08-2.63,2.75-1.08.67-2.4,1-3.93,1-1.06,0-2.04-.18-2.93-.54-.9-.36-1.68-.87-2.35-1.51s-1.19-1.41-1.56-2.29c-.37-.88-.56-1.85-.56-2.91,0-.98.19-1.91.56-2.79.37-.88.88-1.65,1.54-2.31s1.43-1.18,2.31-1.57c.88-.39,1.84-.58,2.88-.58,1.13,0,2.13.19,2.99.56.86.37,1.58.88,2.16,1.52.57.64,1.01,1.39,1.31,2.25.3.86.44,1.78.44,2.77,0,.15,0,.3-.01.44,0,.15-.02.28-.04.39-.02.13-.03.25-.03.36h-10.04c.2.89.62,1.54,1.25,1.95.63.41,1.33.61,2.11.61s1.42-.17,1.93-.5c.51-.33.91-.76,1.21-1.28l3.39,1.7ZM147.77,29.9c-.04-.22-.12-.46-.26-.72-.14-.26-.33-.5-.58-.71-.25-.21-.56-.39-.92-.53s-.76-.21-1.21-.21c-.65,0-1.25.18-1.81.56s-.96.91-1.22,1.61h6.01Z"/>
      <path class="cls-1" d="M154.03,24.9h3.89v1.72h.28c.37-.59.9-1.1,1.58-1.53s1.45-.64,2.28-.64c.5,0,.94.06,1.31.18.37.12.68.26.92.41l-1.08,3.72c-.24-.13-.5-.23-.76-.31-.27-.07-.62-.11-1.04-.11-1.04,0-1.83.36-2.38,1.08s-.82,1.67-.82,2.84v6.26h-4.17v-13.62Z"/>
      <path class="cls-1" d="M178.36,35.05c-.67,1.22-1.55,2.18-2.65,2.88-1.1.7-2.44,1.04-4.02,1.04-1.06,0-2.04-.18-2.93-.54-.9-.36-1.68-.86-2.34-1.5-.66-.64-1.17-1.4-1.53-2.29-.36-.89-.54-1.86-.54-2.92s.18-2.03.54-2.92c.36-.89.87-1.65,1.53-2.29.66-.64,1.44-1.14,2.34-1.5.9-.36,1.88-.54,2.93-.54,1.56,0,2.9.34,4.02,1.03,1.12.69,1.95,1.63,2.49,2.84l-3.84,1.61c-.3-.54-.65-.94-1.07-1.2-.42-.26-.95-.39-1.6-.39-.91,0-1.66.3-2.27.9-.6.6-.9,1.42-.9,2.46s.3,1.86.9,2.46c.6.6,1.36.9,2.27.9.65,0,1.2-.14,1.67-.43.46-.29.85-.71,1.17-1.26l3.84,1.67Z"/>
      <path class="cls-1" d="M180.58,38.52v-19.91h4.17v19.91h-4.17Z"/>
      <path class="cls-1" d="M200.9,35.21c-.67,1.17-1.54,2.08-2.63,2.75-1.08.67-2.4,1-3.93,1-1.06,0-2.03-.18-2.93-.54-.9-.36-1.68-.87-2.35-1.51-.67-.65-1.19-1.41-1.56-2.29-.37-.88-.56-1.85-.56-2.91,0-.98.18-1.91.56-2.79.37-.88.88-1.65,1.54-2.31.66-.66,1.43-1.18,2.31-1.57.88-.39,1.84-.58,2.88-.58,1.13,0,2.13.19,2.99.56.86.37,1.58.88,2.15,1.52s1.01,1.39,1.31,2.25c.3.86.45,1.78.45,2.77,0,.15,0,.3-.01.44,0,.15-.02.28-.04.39-.02.13-.03.25-.03.36h-10.04c.2.89.62,1.54,1.25,1.95.63.41,1.33.61,2.11.61s1.42-.17,1.93-.5.91-.76,1.21-1.28l3.39,1.7ZM197.21,29.9c-.04-.22-.12-.46-.26-.72s-.33-.5-.58-.71-.56-.39-.92-.53c-.36-.14-.76-.21-1.21-.21-.65,0-1.25.18-1.81.56-.56.37-.96.91-1.22,1.61h6Z"/>
      <path class="cls-1" d="M215.5,38.97c-1.85,0-3.45-.5-4.8-1.49-1.34-.99-2.29-2.41-2.85-4.27l4.09-1.61c.24.95.64,1.72,1.2,2.33.56.61,1.34.92,2.36.92.33,0,.65-.04.96-.11.31-.07.57-.19.81-.35.23-.16.42-.36.57-.6.15-.24.22-.52.22-.83s-.06-.61-.18-.88c-.12-.27-.32-.52-.6-.75-.28-.23-.65-.46-1.11-.69-.46-.23-1.05-.48-1.75-.74l-1.22-.44c-.52-.19-1.05-.44-1.6-.76s-1.04-.72-1.49-1.18c-.44-.46-.81-1-1.08-1.6-.28-.6-.42-1.27-.42-2.02,0-.8.16-1.55.47-2.25.31-.71.76-1.31,1.33-1.82s1.27-.91,2.09-1.21c.82-.3,1.71-.44,2.7-.44,1.04,0,1.93.13,2.67.4s1.37.61,1.89,1.03.93.89,1.24,1.4.54,1.02.71,1.5l-3.75,1.58c-.2-.59-.53-1.07-.97-1.43-.44-.36-1.02-.54-1.72-.54-.74,0-1.33.15-1.77.46s-.65.7-.65,1.18.22.95.67,1.33c.44.39,1.23.78,2.36,1.17l1.22.42c1.69.57,2.99,1.34,3.92,2.31s1.39,2.26,1.39,3.89c0,1.04-.21,1.94-.63,2.7-.42.76-.95,1.39-1.61,1.89-.66.5-1.4.88-2.22,1.13-.83.25-1.64.38-2.43.38Z"/>
      <path class="cls-1" d="M238.27,35.05c-.67,1.22-1.55,2.18-2.65,2.88-1.1.7-2.44,1.04-4.02,1.04-1.06,0-2.04-.18-2.93-.54-.9-.36-1.68-.86-2.34-1.5-.66-.64-1.17-1.4-1.53-2.29-.36-.89-.54-1.86-.54-2.92s.18-2.03.54-2.92c.36-.89.87-1.65,1.53-2.29.66-.64,1.44-1.14,2.34-1.5.9-.36,1.88-.54,2.93-.54,1.56,0,2.9.34,4.02,1.03,1.12.69,1.95,1.63,2.49,2.84l-3.84,1.61c-.3-.54-.65-.94-1.07-1.2-.42-.26-.95-.39-1.6-.39-.91,0-1.66.3-2.27.9-.6.6-.9,1.42-.9,2.46s.3,1.86.9,2.46c.6.6,1.36.9,2.27.9.65,0,1.2-.14,1.67-.43.46-.29.85-.71,1.17-1.26l3.84,1.67Z"/>
      <path class="cls-1" d="M242.8,23.62c-.37,0-.71-.07-1.03-.21-.32-.14-.59-.32-.82-.56-.23-.23-.42-.5-.56-.82-.14-.31-.21-.66-.21-1.03s.07-.69.21-1.01c.14-.32.32-.6.56-.83s.5-.42.82-.56c.31-.14.66-.21,1.03-.21.35,0,.69.07,1.01.21s.6.32.83.56c.23.23.42.51.56.83.14.32.21.66.21,1.01,0,.37-.07.71-.21,1.03-.14.32-.33.59-.56.82-.23.23-.51.42-.83.56-.32.14-.66.21-1.01.21ZM240.72,38.52v-13.62h4.17v13.62h-4.17Z"/>
      <path class="cls-1" d="M261.26,35.21c-.67,1.17-1.54,2.08-2.63,2.75-1.08.67-2.4,1-3.93,1-1.06,0-2.03-.18-2.93-.54-.9-.36-1.68-.87-2.35-1.51-.67-.65-1.19-1.41-1.56-2.29-.37-.88-.56-1.85-.56-2.91,0-.98.18-1.91.56-2.79.37-.88.88-1.65,1.54-2.31.66-.66,1.43-1.18,2.31-1.57.88-.39,1.84-.58,2.88-.58,1.13,0,2.13.19,2.99.56.86.37,1.58.88,2.15,1.52s1.01,1.39,1.31,2.25c.3.86.45,1.78.45,2.77,0,.15,0,.3-.01.44,0,.15-.02.28-.04.39-.02.13-.03.25-.03.36h-10.04c.2.89.62,1.54,1.25,1.95.63.41,1.33.61,2.11.61s1.42-.17,1.93-.5.91-.76,1.21-1.28l3.39,1.7ZM257.57,29.9c-.04-.22-.12-.46-.26-.72s-.33-.5-.58-.71-.56-.39-.92-.53c-.36-.14-.76-.21-1.21-.21-.65,0-1.25.18-1.81.56-.56.37-.96.91-1.22,1.61h6Z"/>
      <path class="cls-1" d="M267.71,26.62h.28c.93-1.45,2.32-2.17,4.17-2.17,1.71,0,2.97.55,3.81,1.64.83,1.09,1.25,2.53,1.25,4.31v8.12h-4.17v-7.65c0-.74-.18-1.35-.53-1.82-.35-.47-.9-.71-1.64-.71-.95,0-1.66.36-2.16,1.08s-.74,1.67-.74,2.84v6.26h-4.17v-13.62h3.89v1.72Z"/>
      <path class="cls-1" d="M281.03,28.4h-2.39v-3.5h2.39v-4.17h4.17v4.17h3.36v3.5h-3.36v4.75c0,.31.04.59.11.85s.2.47.39.65c.28.25.64.37,1.08.37.3,0,.55-.04.75-.11s.38-.17.53-.28l1.17,3.61c-.48.22-1,.4-1.56.53-.56.13-1.15.2-1.78.2-1.46,0-2.62-.44-3.48-1.31-.44-.45-.79-1.02-1.03-1.69-.24-.67-.36-1.42-.36-2.23v-5.34Z"/>
      <path class="cls-1" d="M293.79,23.62c-.37,0-.71-.07-1.03-.21-.32-.14-.59-.32-.82-.56-.23-.23-.42-.5-.56-.82-.14-.31-.21-.66-.21-1.03s.07-.69.21-1.01c.14-.32.32-.6.56-.83s.5-.42.82-.56c.31-.14.66-.21,1.03-.21.35,0,.69.07,1.01.21s.6.32.83.56c.23.23.42.51.56.83.14.32.21.66.21,1.01,0,.37-.07.71-.21,1.03-.14.32-.33.59-.56.82-.23.23-.51.42-.83.56-.32.14-.66.21-1.01.21ZM291.71,38.52v-13.62h4.17v13.62h-4.17Z"/>
      <path class="cls-1" d="M304.89,38.52h-4.17v-10.12h-2.39v-3.5h2.39v-1c0-1.8.5-3.17,1.5-4.1,1-.94,2.32-1.4,3.95-1.4.28,0,.5,0,.68.01s.34.03.49.07v3.98c-.09-.04-.21-.06-.36-.08s-.32-.03-.53-.03c-.5,0-.88.16-1.15.47-.27.32-.4.74-.4,1.28v.81h8.84v13.62h-4.17v-10.12h-4.67v10.12ZM311.64,23.4c-.37,0-.71-.07-1.03-.21-.32-.14-.59-.32-.82-.56-.23-.23-.42-.5-.56-.82-.14-.31-.21-.66-.21-1.03,0-.35.07-.69.21-1.01.14-.32.32-.6.56-.83.23-.23.5-.42.82-.56.31-.14.66-.21,1.03-.21.72,0,1.34.25,1.85.76.51.51.76,1.13.76,1.85,0,.37-.07.71-.21,1.03-.14.32-.32.59-.56.82s-.51.42-.83.56c-.32.14-.66.21-1.01.21Z"/>
      <path class="cls-1" d="M326.93,24.9h3.89v19.63h-4.17v-5.56l.28-1.95h-.28c-.32.54-.8,1-1.46,1.38-.66.38-1.49.57-2.49.57-.87,0-1.71-.18-2.5-.53-.8-.35-1.5-.85-2.1-1.49-.6-.64-1.08-1.4-1.43-2.29-.35-.89-.53-1.87-.53-2.95s.18-2.06.53-2.95c.35-.89.83-1.65,1.43-2.29.6-.64,1.3-1.13,2.1-1.49.8-.35,1.63-.53,2.5-.53,1,0,1.83.19,2.49.57.66.38,1.14.84,1.46,1.38h.28v-1.5ZM323.63,28.35c-.45,0-.87.08-1.26.24-.4.16-.75.38-1.06.68-.31.3-.55.65-.72,1.06-.18.41-.26.87-.26,1.39s.09.99.26,1.4c.18.42.42.77.72,1.06.31.29.66.51,1.06.67.4.16.82.24,1.26.24s.87-.08,1.26-.24.75-.38,1.06-.67c.31-.29.55-.64.72-1.06.18-.42.26-.89.26-1.4s-.09-.98-.26-1.39c-.18-.41-.42-.76-.72-1.06-.31-.3-.66-.52-1.06-.68s-.82-.24-1.26-.24Z"/>
      <path class="cls-1" d="M343.23,36.8h-.28c-.93,1.45-2.32,2.17-4.17,2.17-1.71,0-2.98-.55-3.81-1.64s-1.25-2.53-1.25-4.31v-8.12h4.17v7.65c0,.74.18,1.35.53,1.82.35.47.9.71,1.64.71.95,0,1.66-.36,2.16-1.08.49-.72.74-1.67.74-2.84v-6.25h4.17v13.62h-3.89v-1.72Z"/>
      <path class="cls-1" d="M363.27,35.21c-.67,1.17-1.54,2.08-2.63,2.75-1.08.67-2.4,1-3.93,1-1.06,0-2.04-.18-2.93-.54-.9-.36-1.68-.87-2.35-1.51s-1.19-1.41-1.56-2.29c-.37-.88-.56-1.85-.56-2.91,0-.98.19-1.91.56-2.79.37-.88.88-1.65,1.54-2.31s1.43-1.18,2.31-1.57c.88-.39,1.84-.58,2.88-.58,1.13,0,2.13.19,2.99.56.86.37,1.58.88,2.16,1.52.57.64,1.01,1.39,1.31,2.25.3.86.44,1.78.44,2.77,0,.15,0,.3-.01.44,0,.15-.02.28-.04.39-.02.13-.03.25-.03.36h-10.04c.2.89.62,1.54,1.25,1.95.63.41,1.33.61,2.11.61s1.42-.17,1.93-.5c.51-.33.91-.76,1.21-1.28l3.39,1.7ZM359.58,29.9c-.04-.22-.12-.46-.26-.72-.14-.26-.33-.5-.58-.71-.25-.21-.56-.39-.92-.53s-.76-.21-1.21-.21c-.65,0-1.25.18-1.81.56s-.96.91-1.22,1.61h6.01Z"/>
    </g>
    <g>
      <path class="cls-1" d="M120.25,52.27h6.66l8.82,15.13h.43l8.82-15.13h6.66v30.95h-6.66v-13.71l.43-5.19h-.43l-7.05,12.32h-3.98l-7.05-12.32h-.43l.43,5.19v13.71h-6.66v-30.95Z"/>
      <path class="cls-1" d="M166.85,52.27h7.78l11.59,30.95h-7.44l-2.38-6.92h-11.33l-2.38,6.92h-7.44l11.59-30.95ZM174.25,70.17l-2.25-6.48-1.04-3.8h-.43l-1.04,3.8-2.25,6.48h7Z"/>
      <path class="cls-1" d="M193.61,83.22v-24.56h-8.65v-6.4h24.04v6.4h-8.65v24.56h-6.74Z"/>
      <path class="cls-1" d="M213.15,52.27h6.74v11.93h11.85v-11.93h6.74v30.95h-6.74v-12.62h-11.85v12.62h-6.74v-30.95Z"/>
      <path class="cls-1" d="M244.02,66.88h15.04v5.88h-15.04v-5.88Z"/>
      <path class="cls-1" d="M264.6,52.27h6.74v30.95h-6.74v-30.95Z"/>
      <path class="cls-1" d="M277.57,52.27h7.78l11.15,19.11h.43l-.43-5.97v-13.14h6.66v30.95h-7.09l-11.85-20.23h-.43l.43,5.97v14.27h-6.66v-30.95Z"/>
      <path class="cls-1" d="M309.39,52.27h20.41v6.4h-13.66v6.22h12.28v6.4h-12.28v11.93h-6.74v-30.95Z"/>
      <path class="cls-1" d="M348.64,83.92c-2.33,0-4.5-.42-6.49-1.25-1.99-.83-3.71-1.98-5.17-3.44-1.46-1.46-2.59-3.16-3.42-5.12-.82-1.96-1.23-4.08-1.23-6.36s.41-4.39,1.23-6.35c.82-1.96,1.96-3.67,3.42-5.12,1.46-1.46,3.18-2.6,5.17-3.44s4.15-1.25,6.49-1.25,4.5.42,6.48,1.25c1.99.84,3.71,1.98,5.17,3.44s2.59,3.16,3.42,5.12,1.23,4.08,1.23,6.35-.41,4.4-1.23,6.36-1.96,3.67-3.42,5.12c-1.46,1.46-3.18,2.6-5.17,3.44-1.99.84-4.15,1.25-6.48,1.25ZM348.64,77.52c1.33,0,2.57-.23,3.74-.69s2.18-1.12,3.05-1.99c.86-.87,1.54-1.9,2.03-3.09.49-1.2.73-2.53.73-4s-.25-2.8-.73-4c-.49-1.2-1.17-2.23-2.03-3.09s-1.88-1.53-3.05-1.99-2.41-.69-3.74-.69-2.61.23-3.76.69c-1.15.46-2.16,1.12-3.03,1.99-.86.86-1.54,1.9-2.03,3.09-.49,1.2-.73,2.53-.73,4s.24,2.8.73,4c.49,1.2,1.17,2.23,2.03,3.09.87.86,1.87,1.53,3.03,1.99,1.15.46,2.41.69,3.76.69Z"/>
    </g>
  </g>
</svg>